<svg width="215" height="48" viewBox="0 0 215 48" fill="none" xmlns="http://www.w3.org/2000/svg">
<rect x="0.5" y="0.5" width="214" height="47" rx="23.5" fill="white"/>
<rect x="0.5" y="0.5" width="214" height="47" rx="23.5" stroke="#FF9F2F"/>
<rect x="19" y="7" width="34" height="34" rx="17" fill="#FF9F2F"/>
<path d="M34.1947 16.0003C33.883 15.9947 33.5789 16.0617 33.2802 16.2471L33.2805 16.2463C33.1332 16.3378 32.9783 16.4704 32.8313 16.5024C32.3505 16.6076 31.945 16.8875 31.4873 17.0361C31.2696 17.1067 31.1649 17.2428 31.1714 17.4734C31.0821 17.6386 30.9411 17.7421 30.7773 17.8211C30.6322 17.8908 30.4939 17.9705 30.4507 18.1464L30.4486 18.1481C30.2779 18.3513 30.0985 18.5474 29.9244 18.8511L35.2606 17.0624C35.0297 16.8382 34.79 16.6485 35.0568 16.3045C34.8176 16.3212 34.6484 16.4629 34.4468 16.4311C34.5612 16.2572 34.806 16.294 34.9367 16.1232C34.6842 16.0528 34.4372 16.0046 34.1947 16.0003ZM37.0583 17.0857C36.8335 17.0999 36.6172 17.1181 36.4305 17.283C36.2089 17.4777 35.9597 17.5331 35.7083 17.3165C35.5186 17.153 35.3336 17.1839 35.1185 17.2903C34.6217 17.5366 34.112 17.7567 33.6081 17.9872C32.4389 18.5247 31.2702 19.0627 30.1019 19.6011C29.7283 19.7259 29.7118 19.7605 29.7977 20.1406C29.8605 20.4181 29.9738 20.7102 29.655 20.9171C29.6201 20.9333 29.5905 20.9595 29.5699 20.9925C29.5494 21.0256 29.5387 21.0641 29.5392 21.1033C29.5389 21.1034 29.5386 21.1036 29.5383 21.1037C29.4556 21.399 29.5249 21.686 29.5775 21.9761C29.6108 22.1597 29.6944 22.1527 29.8325 22.0856C30.145 21.9335 30.462 21.791 30.7788 21.6484C31.7802 21.1988 32.7818 20.7494 33.7836 20.3004C33.8117 20.3016 33.8398 20.299 33.8672 20.2926C33.8347 20.3101 33.8046 20.331 33.7882 20.3701L32.7609 20.9851L31.2139 21.7901C30.7708 21.8682 30.3864 22.1127 29.9663 22.2515C29.7064 22.3372 29.758 22.4296 29.9352 22.5488C30.101 22.7528 30.3453 22.8033 30.5744 22.8825L30.5754 22.882C30.7529 22.967 30.9294 23.0549 31.1089 23.1358C31.2759 23.2116 31.4311 23.2378 31.5327 23.0215C31.5898 22.8988 31.6936 22.881 31.818 22.9394C32.0119 23.0316 32.2171 23.0344 32.4246 22.9977L32.4244 22.9979C32.4248 22.9979 32.4253 22.998 32.4256 22.998L32.4267 22.9989L32.4281 22.9982C32.5068 23.0052 32.5844 23.0062 32.6527 22.9552C32.7466 22.9552 32.8413 22.9476 32.934 22.9572C33.3758 23.0033 33.8357 22.8499 34.2612 23.0901C34.342 23.1355 34.4173 23.0455 34.4895 23.0079C35.256 22.6072 36.0217 22.2047 36.7866 21.8003C37.8025 21.2656 38.818 20.7309 39.8331 20.1963C39.9201 20.1503 40.1184 20.1302 39.9455 19.9504V19.9489C39.827 19.705 39.7207 19.4564 39.6787 19.1847L39.6795 19.1837C39.6661 18.9812 39.5985 18.7955 39.5128 18.6142C39.4386 18.4589 39.3551 18.4157 39.1818 18.4944C38.7809 18.6768 38.3697 18.8433 37.9588 18.9934C37.5479 19.1435 37.1663 19.3793 36.7246 19.4405L36.7233 19.4404L36.7235 19.4402C36.7195 19.3711 36.7805 19.379 36.8174 19.358L38.997 18.1184C39.005 17.9105 38.932 17.7237 38.8544 17.5383L38.8539 17.5385L38.854 17.5383C38.7495 17.2681 38.5664 17.1891 38.3016 17.2972C38.122 17.3732 37.9307 17.4161 37.7365 17.4238V17.4232L37.7351 17.4237L37.5842 17.4112C37.3718 17.3649 37.2383 17.1862 37.0583 17.0856L37.0583 17.0857ZM40.2664 20.602C40.217 20.6051 40.1612 20.6262 40.0954 20.6615C39.2918 21.092 38.4811 21.5085 37.6727 21.9291C36.7227 22.4246 35.7713 22.9149 34.8248 23.4156C34.7652 23.4468 34.5977 23.4401 34.6776 23.5925C34.782 23.7909 34.7504 24.0006 34.7557 24.2086C34.7556 24.2087 34.7555 24.2087 34.7555 24.2088V24.2096C34.7532 24.3115 34.7511 24.4134 34.7492 24.5151C34.7714 24.6783 34.83 24.8342 34.9204 24.9707L34.9215 24.9709L34.9207 24.9713L35.0363 25.1284L35.3071 25.4746C35.3533 25.7967 35.5139 25.8002 35.7851 25.7055C36.7678 25.3615 37.7603 25.0456 38.7491 24.7191L38.8062 24.7792L38.807 24.7791L37.7293 25.3C37.5497 25.349 37.3868 25.4347 37.2256 25.5277C37.2019 25.525 37.178 25.529 37.1565 25.5393C37.1349 25.5495 37.1166 25.5657 37.1035 25.586C36.6754 25.7487 36.2583 25.9401 35.855 26.159C35.8484 26.1558 35.8408 26.1554 35.8338 26.1577C35.8268 26.1601 35.821 26.1652 35.8176 26.1718C35.7307 26.1815 35.6491 26.2192 35.5845 26.2794C35.4347 26.3137 35.2663 26.3636 35.2743 26.5461C35.2942 27.0022 35.1393 27.4169 35.024 27.8424L35.0237 27.8425C34.9883 27.9056 34.9727 27.9783 34.9789 28.0508C34.9852 28.1232 35.0131 28.192 35.0589 28.2477C35.1468 28.3553 35.2634 28.2284 35.3599 28.1926C36.8237 27.6505 38.2863 27.1049 39.7476 26.556C39.9408 26.4837 40.1887 26.4516 40.306 26.3103C40.4321 26.1578 40.2614 25.9121 40.2746 25.7031C40.2911 25.6134 40.3078 25.5237 40.3243 25.4337C40.3244 25.4336 40.3244 25.4335 40.3246 25.4335C40.4125 25.1575 40.6276 24.9543 40.7375 24.6908L41.2386 23.9796C41.345 23.7465 41.6061 23.673 41.7448 23.4728L41.7383 23.475L41.7433 23.4722C42.0415 23.2854 42.1691 22.9688 42.3791 22.6394L41.0231 23.065C40.9463 23.0701 40.8707 23.0816 40.7958 23.0964C40.8355 23.073 40.8704 23.0418 40.8984 23.0046C40.9818 22.9638 41.0659 22.9239 41.1487 22.8817C41.5853 22.659 42.0644 22.5293 42.4753 22.2506C42.4642 22.2485 42.4542 22.2427 42.4468 22.234C42.4562 22.2392 42.4656 22.2445 42.4753 22.2506C42.515 22.1291 42.5001 22.0054 42.4776 21.8851L42.4784 21.8868C42.4465 21.7163 42.3731 21.6289 42.1931 21.7519C42.0793 21.8351 41.9481 21.8901 41.8099 21.9125L41.8088 21.9132C41.8088 21.9127 41.8089 21.9123 41.809 21.9119C41.5588 21.8926 41.3005 21.8976 41.1287 21.6578H41.1296C41.0491 21.545 40.9635 21.6263 40.8819 21.6595C40.2512 21.9184 39.6206 22.1777 38.9902 22.4374C38.9429 22.4419 38.8977 22.4529 38.8534 22.4672C38.8805 22.4404 38.9042 22.4103 38.9204 22.3724C39.3763 22.1309 39.8318 21.8886 40.2866 21.6455C40.4849 21.5394 40.8091 21.4631 40.8468 21.3133C40.8959 21.1191 40.588 20.9596 40.4758 20.7556C40.4131 20.6421 40.3487 20.597 40.2664 20.602H40.2664ZM40.3489 26.5916C40.3215 26.5897 40.2862 26.5978 40.2409 26.6169C38.6483 27.2883 37.0542 27.956 35.4586 28.6199C35.3368 28.6718 35.3105 28.7173 35.373 28.8467C35.5254 29.1614 35.6655 29.4829 35.744 29.8276L35.7434 29.8277H35.744V29.8281C35.7534 29.9228 35.7759 30.0188 35.7699 30.1126C35.7557 30.3298 35.7942 30.3965 36.0253 30.2916C37.0829 29.8106 38.1518 29.3565 39.209 28.8753C39.6591 28.6704 39.9655 28.3064 40.1536 27.84L40.1525 27.8401C40.1527 27.84 40.1528 27.8399 40.1531 27.8396C40.4259 27.5207 40.4684 27.1395 40.4385 26.739C40.4316 26.6481 40.4093 26.5956 40.349 26.5916L40.3489 26.5916ZM42.1047 27.1876C41.9776 27.1886 41.8944 27.3228 41.8355 27.4429C41.7828 27.5499 41.7447 27.6644 41.7 27.7758L41.6996 27.7762C41.6215 27.9408 41.5589 28.088 41.311 28.0478C41.1366 28.0195 40.8975 28.1609 40.9143 28.3296C40.9491 28.682 40.7183 28.9837 40.7891 29.3276C40.8163 29.3532 40.8428 29.3628 40.8689 29.3635C40.8374 29.383 40.808 29.4063 40.7831 29.4378C40.7391 29.6089 40.6912 29.7794 40.7377 29.9587L40.7385 29.9586C40.8744 30.2643 40.9764 30.3032 41.27 30.2175C41.6256 30.1133 41.6242 29.804 41.683 29.5247C41.7369 29.3817 41.7765 29.2372 41.7602 29.0668L41.2466 29.2259L41.2463 29.2274C41.2059 29.2429 41.1597 29.2311 41.1192 29.2483C41.1454 29.227 41.1687 29.202 41.1863 29.17C41.2736 29.1178 41.3566 29.0546 41.4494 29.0149C42.0923 28.7418 42.1965 28.1662 42.2447 27.5576C42.2475 27.4273 42.336 27.2454 42.162 27.1958C42.1433 27.1904 42.1241 27.1876 42.1047 27.1877V27.1876ZM39.207 29.0964C38.1252 29.6669 37.0917 30.2236 36.0456 30.7544C35.7768 30.8911 35.7294 31.0397 35.8678 31.2861C35.9265 31.5086 36.0794 31.6487 36.267 31.7589V31.7592L36.2672 31.7591L36.2673 31.7592L36.2679 31.7593C36.3375 31.8546 36.4355 31.8918 36.5461 31.904C36.9379 32.1401 37.4056 31.927 37.6211 31.414C37.895 31.2555 38.1672 31.0905 38.4435 30.9349C38.6209 30.8349 38.7459 30.7114 38.7038 30.4839L38.704 30.4836C38.7568 30.3341 38.9457 30.2967 38.9817 30.1338C38.9495 29.782 39.2399 29.4925 39.2074 29.097L39.207 29.0964Z" fill="white"/>
<path d="M80.958 26.638H77.066L76.422 28.5H74.364L77.878 18.714H80.16L83.674 28.5H81.602L80.958 26.638ZM80.426 25.07L79.012 20.982L77.598 25.07H80.426ZM86.9475 18.14V28.5H84.9875V18.14H86.9475ZM90.844 18.14V28.5H88.884V18.14H90.844ZM102.752 19.988H98.2164V22.382C98.4124 22.1393 98.6924 21.9433 99.0564 21.794C99.4204 21.6353 99.8077 21.556 100.218 21.556C100.965 21.556 101.576 21.7193 102.052 22.046C102.528 22.3727 102.874 22.7927 103.088 23.306C103.303 23.81 103.41 24.3513 103.41 24.93C103.41 26.0033 103.102 26.8667 102.486 27.52C101.88 28.1733 101.012 28.5 99.8824 28.5C98.8184 28.5 97.9691 28.234 97.3344 27.702C96.6997 27.17 96.3404 26.4747 96.2564 25.616H98.1604C98.2444 25.9893 98.4311 26.288 98.7204 26.512C99.0191 26.736 99.3971 26.848 99.8544 26.848C100.405 26.848 100.82 26.6753 101.1 26.33C101.38 25.9847 101.52 25.5273 101.52 24.958C101.52 24.3793 101.376 23.9407 101.086 23.642C100.806 23.334 100.391 23.18 99.8404 23.18C99.4484 23.18 99.1217 23.278 98.8604 23.474C98.5991 23.67 98.4124 23.9313 98.3004 24.258H96.4244V18.266H102.752V19.988ZM104.818 26.512V24.972L109.396 18.42H111.678V24.804H112.91V26.512H111.678V28.5H109.718V26.512H104.818ZM109.844 20.52L106.974 24.804H109.844V20.52ZM121.704 24.37H119.058V27.086H117.21V24.37H114.564V22.662H117.21V19.946H119.058V22.662H121.704V24.37ZM126.676 23.6C126.676 22.6387 126.89 21.78 127.32 21.024C127.758 20.2587 128.351 19.666 129.098 19.246C129.854 18.8167 130.698 18.602 131.632 18.602C132.724 18.602 133.68 18.882 134.502 19.442C135.323 20.002 135.897 20.7767 136.224 21.766H133.97C133.746 21.2993 133.428 20.9493 133.018 20.716C132.616 20.4827 132.15 20.366 131.618 20.366C131.048 20.366 130.54 20.5013 130.092 20.772C129.653 21.0333 129.308 21.4067 129.056 21.892C128.813 22.3773 128.692 22.9467 128.692 23.6C128.692 24.244 128.813 24.8133 129.056 25.308C129.308 25.7933 129.653 26.1713 130.092 26.442C130.54 26.7033 131.048 26.834 131.618 26.834C132.15 26.834 132.616 26.7173 133.018 26.484C133.428 26.2413 133.746 25.8867 133.97 25.42H136.224C135.897 26.4187 135.323 27.198 134.502 27.758C133.69 28.3087 132.733 28.584 131.632 28.584C130.698 28.584 129.854 28.374 129.098 27.954C128.351 27.5247 127.758 26.932 127.32 26.176C126.89 25.42 126.676 24.5613 126.676 23.6ZM141.342 28.626C140.595 28.626 139.923 28.4627 139.326 28.136C138.728 27.8 138.257 27.3287 137.912 26.722C137.576 26.1153 137.408 25.4153 137.408 24.622C137.408 23.8287 137.58 23.1287 137.926 22.522C138.28 21.9153 138.761 21.4487 139.368 21.122C139.974 20.786 140.651 20.618 141.398 20.618C142.144 20.618 142.821 20.786 143.428 21.122C144.034 21.4487 144.51 21.9153 144.856 22.522C145.21 23.1287 145.388 23.8287 145.388 24.622C145.388 25.4153 145.206 26.1153 144.842 26.722C144.487 27.3287 144.002 27.8 143.386 28.136C142.779 28.4627 142.098 28.626 141.342 28.626ZM141.342 26.918C141.696 26.918 142.028 26.834 142.336 26.666C142.653 26.4887 142.905 26.2273 143.092 25.882C143.278 25.5367 143.372 25.1167 143.372 24.622C143.372 23.8847 143.176 23.32 142.784 22.928C142.401 22.5267 141.93 22.326 141.37 22.326C140.81 22.326 140.338 22.5267 139.956 22.928C139.582 23.32 139.396 23.8847 139.396 24.622C139.396 25.3593 139.578 25.9287 139.942 26.33C140.315 26.722 140.782 26.918 141.342 26.918ZM154.147 20.744V28.5H152.173V27.52C151.921 27.856 151.59 28.122 151.179 28.318C150.778 28.5047 150.339 28.598 149.863 28.598C149.257 28.598 148.72 28.472 148.253 28.22C147.787 27.9587 147.418 27.5807 147.147 27.086C146.886 26.582 146.755 25.9847 146.755 25.294V20.744H148.715V25.014C148.715 25.63 148.869 26.106 149.177 26.442C149.485 26.7687 149.905 26.932 150.437 26.932C150.979 26.932 151.403 26.7687 151.711 26.442C152.019 26.106 152.173 25.63 152.173 25.014V20.744H154.147ZM160.379 20.632C161.303 20.632 162.05 20.926 162.619 21.514C163.189 22.0927 163.473 22.9047 163.473 23.95V28.5H161.513V24.216C161.513 23.6 161.359 23.1287 161.051 22.802C160.743 22.466 160.323 22.298 159.791 22.298C159.25 22.298 158.821 22.466 158.503 22.802C158.195 23.1287 158.041 23.6 158.041 24.216V28.5H156.081V20.744H158.041V21.71C158.303 21.374 158.634 21.1127 159.035 20.926C159.446 20.73 159.894 20.632 160.379 20.632ZM167.619 22.354V26.106C167.619 26.3673 167.68 26.5587 167.801 26.68C167.932 26.792 168.146 26.848 168.445 26.848H169.355V28.5H168.123C166.471 28.5 165.645 27.6973 165.645 26.092V22.354H164.721V20.744H165.645V18.826H167.619V20.744H169.355V22.354H167.619ZM172.725 21.948C172.977 21.5373 173.303 21.2153 173.705 20.982C174.115 20.7487 174.582 20.632 175.105 20.632V22.69H174.587C173.971 22.69 173.504 22.8347 173.187 23.124C172.879 23.4133 172.725 23.9173 172.725 24.636V28.5H170.765V20.744H172.725V21.948ZM177.419 19.82C177.074 19.82 176.784 19.7127 176.551 19.498C176.327 19.274 176.215 18.9987 176.215 18.672C176.215 18.3453 176.327 18.0747 176.551 17.86C176.784 17.636 177.074 17.524 177.419 17.524C177.764 17.524 178.049 17.636 178.273 17.86C178.506 18.0747 178.623 18.3453 178.623 18.672C178.623 18.9987 178.506 19.274 178.273 19.498C178.049 19.7127 177.764 19.82 177.419 19.82ZM178.385 20.744V28.5H176.425V20.744H178.385ZM187.531 24.454C187.531 24.734 187.513 24.986 187.475 25.21H181.805C181.852 25.77 182.048 26.2087 182.393 26.526C182.739 26.8433 183.163 27.002 183.667 27.002C184.395 27.002 184.913 26.6893 185.221 26.064H187.335C187.111 26.8107 186.682 27.4267 186.047 27.912C185.413 28.388 184.633 28.626 183.709 28.626C182.963 28.626 182.291 28.4627 181.693 28.136C181.105 27.8 180.643 27.3287 180.307 26.722C179.981 26.1153 179.817 25.4153 179.817 24.622C179.817 23.8193 179.981 23.1147 180.307 22.508C180.634 21.9013 181.091 21.4347 181.679 21.108C182.267 20.7813 182.944 20.618 183.709 20.618C184.447 20.618 185.105 20.7767 185.683 21.094C186.271 21.4113 186.724 21.864 187.041 22.452C187.368 23.0307 187.531 23.698 187.531 24.454ZM185.501 23.894C185.492 23.39 185.31 22.9887 184.955 22.69C184.601 22.382 184.167 22.228 183.653 22.228C183.168 22.228 182.757 22.3773 182.421 22.676C182.095 22.9653 181.894 23.3713 181.819 23.894H185.501ZM191.93 28.626C191.295 28.626 190.726 28.514 190.222 28.29C189.718 28.0567 189.317 27.744 189.018 27.352C188.729 26.96 188.57 26.526 188.542 26.05H190.516C190.553 26.3487 190.698 26.596 190.95 26.792C191.211 26.988 191.533 27.086 191.916 27.086C192.289 27.086 192.579 27.0113 192.784 26.862C192.999 26.7127 193.106 26.5213 193.106 26.288C193.106 26.036 192.975 25.8493 192.714 25.728C192.462 25.5973 192.056 25.4573 191.496 25.308C190.917 25.168 190.441 25.0233 190.068 24.874C189.704 24.7247 189.387 24.496 189.116 24.188C188.855 23.88 188.724 23.4647 188.724 22.942C188.724 22.5127 188.845 22.1207 189.088 21.766C189.34 21.4113 189.695 21.1313 190.152 20.926C190.619 20.7207 191.165 20.618 191.79 20.618C192.714 20.618 193.451 20.8513 194.002 21.318C194.553 21.7753 194.856 22.396 194.912 23.18H193.036C193.008 22.872 192.877 22.6293 192.644 22.452C192.42 22.2653 192.117 22.172 191.734 22.172C191.379 22.172 191.104 22.2373 190.908 22.368C190.721 22.4987 190.628 22.6807 190.628 22.914C190.628 23.1753 190.759 23.376 191.02 23.516C191.281 23.6467 191.687 23.782 192.238 23.922C192.798 24.062 193.26 24.2067 193.624 24.356C193.988 24.5053 194.301 24.7387 194.562 25.056C194.833 25.364 194.973 25.7747 194.982 26.288C194.982 26.736 194.856 27.1373 194.604 27.492C194.361 27.8467 194.007 28.1267 193.54 28.332C193.083 28.528 192.546 28.626 191.93 28.626Z" fill="black"/>
</svg>
