<svg width="137" height="48" viewBox="0 0 137 48" fill="none" xmlns="http://www.w3.org/2000/svg">
<rect x="0.5" y="0.5" width="136" height="47" rx="23.5" fill="white"/>
<rect x="0.5" y="0.5" width="136" height="47" rx="23.5" stroke="#FF9F2F"/>
<path d="M36 39.9375C44.8188 39.9375 51.9375 32.8188 51.9375 24H20.0625C20.0625 32.8188 27.1812 39.9375 36 39.9375Z" fill="#3E4347"/>
<path d="M36 8.0625C27.1812 8.0625 20.0625 15.1812 20.0625 24H51.9375C51.9375 15.1812 44.8188 8.0625 36 8.0625Z" fill="#ED4C5C"/>
<path d="M33.6094 20.0158L32.9188 22.1408L34.725 20.8126L36.5844 22.1408L35.8938 20.0158L37.7 18.6876H35.4156L34.725 16.5095L34.0344 18.6876H31.75L33.6094 20.0158ZM44.5 32.8189C44.2344 32.3939 43.9156 32.0751 43.4906 31.7033C43.0656 31.3314 42.4813 30.9064 42.0031 30.4814L41.1531 31.4376C41.1 31.4908 41.1531 31.597 41.1531 31.597C42.1094 31.7564 42.375 32.0751 42.7469 32.3939C43.2781 32.9251 43.4375 33.5095 43.8094 33.7751C44.4469 34.147 44.925 33.4564 44.5 32.8189ZM36.9563 29.1533C36.0531 29.472 35.0438 29.5783 34.0344 29.472C32.7063 29.3126 31.4844 28.8345 30.475 27.9845L29.4656 29.2064C29.8906 29.5783 30.3688 29.8439 30.7938 30.1095L30.475 30.747C31.0063 31.0126 31.5375 31.2783 32.1219 31.4376L32.3344 30.8001C32.8656 30.9595 33.3969 31.0658 33.9281 31.1189L33.875 31.7564C34.4594 31.8095 35.0438 31.8095 35.6281 31.7564L35.575 31.0658C36.1063 31.0126 36.6375 30.9064 37.1688 30.747L37.3813 31.3845C37.6469 31.2783 37.9125 31.2251 38.2313 31.0658L37.8594 29.6314L36.9563 29.1533Z" fill="#FFE62E"/>
<path d="M41.4719 23.4688C41.2594 25.275 40.4094 26.8157 39.1344 27.9313L41.0469 29.2594C41.3125 28.9938 41.525 28.7813 41.7375 28.5157L41.2063 28.0907C41.5782 27.6657 41.8438 27.1875 42.1094 26.7625L42.7469 27.0813C43.0125 26.55 43.2782 26.0188 43.4375 25.4344L42.8 25.2219C42.9594 24.6907 43.0657 24.1594 43.1188 23.6282L43.8094 23.6813C43.8625 23.0969 43.8625 22.5125 43.8094 21.9282L43.1188 21.9813C43.0657 21.45 42.9594 20.9188 42.8 20.3875L43.4375 20.175C43.2782 19.5907 43.0657 19.0594 42.7469 18.5282L42.1094 18.8469C41.8438 18.3688 41.5782 17.8907 41.2063 17.4657L41.7375 17.0407C41.3657 16.5625 40.9407 16.1907 40.4625 15.7657L40.0375 16.2969C39.6125 15.925 39.1875 15.6594 38.7094 15.3938L39.0282 14.7563C38.4969 14.4907 37.9657 14.225 37.3813 14.0657L37.1688 14.7563C36.6907 14.5969 36.1594 14.4907 35.6282 14.4375L35.4688 16.0313C39.1344 16.4032 41.8438 19.75 41.4719 23.4688ZM38.8157 28.8875C37.0094 27.6125 35.2032 26.3375 33.6094 24.85L33.7157 24.7438C35.2563 26.1782 37.1157 27.5063 38.8688 28.7282C39.7719 29.3657 40.675 30.0032 41.525 30.6407L41.8438 30.375C38.8688 28.25 31.8563 23.3625 31.75 21.6094C30.3688 24.3188 32.1219 25.9125 33.2375 26.6032C36.1063 28.25 38.0188 29.3125 41.0469 31.3313L41.4719 30.8532C40.6219 30.1094 39.7188 29.4719 38.8157 28.8875Z" fill="#FFE62E"/>
<path d="M72.958 26.638H69.066L68.422 28.5H66.364L69.878 18.714H72.16L75.674 28.5H73.602L72.958 26.638ZM72.426 25.07L71.012 20.982L69.598 25.07H72.426ZM81.2855 20.632C82.2095 20.632 82.9562 20.926 83.5255 21.514C84.0948 22.0927 84.3795 22.9047 84.3795 23.95V28.5H82.4195V24.216C82.4195 23.6 82.2655 23.1287 81.9575 22.802C81.6495 22.466 81.2295 22.298 80.6975 22.298C80.1562 22.298 79.7268 22.466 79.4095 22.802C79.1015 23.1287 78.9475 23.6 78.9475 24.216V28.5H76.9875V20.744H78.9475V21.71C79.2088 21.374 79.5402 21.1127 79.9415 20.926C80.3522 20.73 80.8002 20.632 81.2855 20.632ZM89.2813 20.618C89.86 20.618 90.3687 20.7347 90.8073 20.968C91.246 21.192 91.5913 21.486 91.8433 21.85V20.744H93.8173V28.556C93.8173 29.2747 93.6727 29.914 93.3833 30.474C93.094 31.0433 92.66 31.4913 92.0813 31.818C91.5027 32.154 90.8027 32.322 89.9813 32.322C88.88 32.322 87.9747 32.0653 87.2653 31.552C86.5653 31.0387 86.1687 30.3387 86.0753 29.452H88.0213C88.124 29.8067 88.3433 30.0867 88.6793 30.292C89.0247 30.5067 89.44 30.614 89.9253 30.614C90.4947 30.614 90.9567 30.4413 91.3113 30.096C91.666 29.76 91.8433 29.2467 91.8433 28.556V27.352C91.5913 27.716 91.2413 28.0193 90.7933 28.262C90.3547 28.5047 89.8507 28.626 89.2813 28.626C88.628 28.626 88.0307 28.458 87.4893 28.122C86.948 27.786 86.5187 27.3147 86.2013 26.708C85.8933 26.092 85.7393 25.3873 85.7393 24.594C85.7393 23.81 85.8933 23.1147 86.2013 22.508C86.5187 21.9013 86.9433 21.4347 87.4753 21.108C88.0167 20.7813 88.6187 20.618 89.2813 20.618ZM91.8433 24.622C91.8433 24.146 91.75 23.74 91.5633 23.404C91.3767 23.0587 91.1247 22.7973 90.8073 22.62C90.49 22.4333 90.1493 22.34 89.7853 22.34C89.4213 22.34 89.0853 22.4287 88.7773 22.606C88.4693 22.7833 88.2173 23.0447 88.0213 23.39C87.8347 23.726 87.7413 24.1273 87.7413 24.594C87.7413 25.0607 87.8347 25.4713 88.0213 25.826C88.2173 26.1713 88.4693 26.4373 88.7773 26.624C89.0947 26.8107 89.4307 26.904 89.7853 26.904C90.1493 26.904 90.49 26.8153 90.8073 26.638C91.1247 26.4513 91.3767 26.19 91.5633 25.854C91.75 25.5087 91.8433 25.098 91.8433 24.622ZM99.1756 28.626C98.429 28.626 97.757 28.4627 97.1596 28.136C96.5623 27.8 96.091 27.3287 95.7456 26.722C95.4096 26.1153 95.2416 25.4153 95.2416 24.622C95.2416 23.8287 95.4143 23.1287 95.7596 22.522C96.1143 21.9153 96.595 21.4487 97.2016 21.122C97.8083 20.786 98.485 20.618 99.2316 20.618C99.9783 20.618 100.655 20.786 101.262 21.122C101.868 21.4487 102.344 21.9153 102.69 22.522C103.044 23.1287 103.222 23.8287 103.222 24.622C103.222 25.4153 103.04 26.1153 102.676 26.722C102.321 27.3287 101.836 27.8 101.22 28.136C100.613 28.4627 99.9316 28.626 99.1756 28.626ZM99.1756 26.918C99.5303 26.918 99.8616 26.834 100.17 26.666C100.487 26.4887 100.739 26.2273 100.926 25.882C101.112 25.5367 101.206 25.1167 101.206 24.622C101.206 23.8847 101.01 23.32 100.618 22.928C100.235 22.5267 99.7636 22.326 99.2036 22.326C98.6436 22.326 98.1723 22.5267 97.7896 22.928C97.4163 23.32 97.2296 23.8847 97.2296 24.622C97.2296 25.3593 97.4116 25.9287 97.7756 26.33C98.149 26.722 98.6156 26.918 99.1756 26.918ZM106.619 18.14V28.5H104.659V18.14H106.619ZM108.052 24.594C108.052 23.81 108.206 23.1147 108.514 22.508C108.831 21.9013 109.256 21.4347 109.788 21.108C110.329 20.7813 110.931 20.618 111.594 20.618C112.173 20.618 112.677 20.7347 113.106 20.968C113.545 21.2013 113.895 21.4953 114.156 21.85V20.744H116.13V28.5H114.156V27.366C113.904 27.73 113.554 28.0333 113.106 28.276C112.667 28.5093 112.159 28.626 111.58 28.626C110.927 28.626 110.329 28.458 109.788 28.122C109.256 27.786 108.831 27.3147 108.514 26.708C108.206 26.092 108.052 25.3873 108.052 24.594ZM114.156 24.622C114.156 24.146 114.063 23.74 113.876 23.404C113.689 23.0587 113.437 22.7973 113.12 22.62C112.803 22.4333 112.462 22.34 112.098 22.34C111.734 22.34 111.398 22.4287 111.09 22.606C110.782 22.7833 110.53 23.0447 110.334 23.39C110.147 23.726 110.054 24.1273 110.054 24.594C110.054 25.0607 110.147 25.4713 110.334 25.826C110.53 26.1713 110.782 26.4373 111.09 26.624C111.407 26.8107 111.743 26.904 112.098 26.904C112.462 26.904 112.803 26.8153 113.12 26.638C113.437 26.4513 113.689 26.19 113.876 25.854C114.063 25.5087 114.156 25.098 114.156 24.622Z" fill="black"/>
</svg>
