<svg width="148" height="48" viewBox="0 0 148 48" fill="none" xmlns="http://www.w3.org/2000/svg">
<rect x="0.5" y="0.5" width="147" height="47" rx="23.5" fill="white"/>
<rect x="0.5" y="0.5" width="147" height="47" rx="23.5" stroke="#FF9F2F"/>
<path d="M51.3531 19.75C49.4938 13.0031 43.3313 8.0625 36 8.0625C28.6688 8.0625 22.5063 13.0031 20.6469 19.75V28.25C22.5063 34.9969 28.6688 39.9375 36 39.9375C43.3313 39.9375 49.4938 34.9969 51.3531 28.25V19.75Z" fill="#B4D7EE"/>
<path d="M51.725 21.3438C51.6187 20.8125 51.5125 20.2812 51.3531 19.75H20.6469C20.4875 20.2812 20.3812 20.8125 20.275 21.3438H51.725ZM20.275 26.6562C20.3812 27.1875 20.4875 27.7188 20.6469 28.25H51.3531C51.5125 27.7188 51.6187 27.1875 51.725 26.6562H20.275Z" fill="white"/>
<path d="M20.0625 24C20.0625 24.9031 20.1156 25.8063 20.275 26.6562H51.725C51.8844 25.8063 51.9375 24.9031 51.9375 24C51.9375 23.0969 51.8844 22.1938 51.725 21.3438H20.275C20.1156 22.1938 20.0625 23.0969 20.0625 24Z" fill="#3E4347"/>
<path d="M71.51 23.488C72.0607 23.5907 72.5133 23.866 72.868 24.314C73.2227 24.762 73.4 25.2753 73.4 25.854C73.4 26.3767 73.2693 26.8387 73.008 27.24C72.756 27.632 72.3873 27.94 71.902 28.164C71.4167 28.388 70.8427 28.5 70.18 28.5H65.966V18.728H69.998C70.6607 18.728 71.23 18.8353 71.706 19.05C72.1913 19.2647 72.5553 19.5633 72.798 19.946C73.05 20.3287 73.176 20.7627 73.176 21.248C73.176 21.8173 73.022 22.2933 72.714 22.676C72.4153 23.0587 72.014 23.3293 71.51 23.488ZM67.926 22.76H69.718C70.1847 22.76 70.544 22.6573 70.796 22.452C71.048 22.2373 71.174 21.934 71.174 21.542C71.174 21.15 71.048 20.8467 70.796 20.632C70.544 20.4173 70.1847 20.31 69.718 20.31H67.926V22.76ZM69.9 26.904C70.376 26.904 70.7447 26.792 71.006 26.568C71.2767 26.344 71.412 26.0267 71.412 25.616C71.412 25.196 71.272 24.8693 70.992 24.636C70.712 24.3933 70.334 24.272 69.858 24.272H67.926V26.904H69.9ZM78.4061 28.626C77.6594 28.626 76.9874 28.4627 76.3901 28.136C75.7928 27.8 75.3214 27.3287 74.9761 26.722C74.6401 26.1153 74.4721 25.4153 74.4721 24.622C74.4721 23.8287 74.6448 23.1287 74.9901 22.522C75.3448 21.9153 75.8254 21.4487 76.4321 21.122C77.0388 20.786 77.7154 20.618 78.4621 20.618C79.2088 20.618 79.8854 20.786 80.4921 21.122C81.0988 21.4487 81.5748 21.9153 81.9201 22.522C82.2748 23.1287 82.4521 23.8287 82.4521 24.622C82.4521 25.4153 82.2701 26.1153 81.9061 26.722C81.5514 27.3287 81.0661 27.8 80.4501 28.136C79.8434 28.4627 79.1621 28.626 78.4061 28.626ZM78.4061 26.918C78.7608 26.918 79.0921 26.834 79.4001 26.666C79.7174 26.4887 79.9694 26.2273 80.1561 25.882C80.3428 25.5367 80.4361 25.1167 80.4361 24.622C80.4361 23.8847 80.2401 23.32 79.8481 22.928C79.4654 22.5267 78.9941 22.326 78.4341 22.326C77.8741 22.326 77.4028 22.5267 77.0201 22.928C76.6468 23.32 76.4601 23.8847 76.4601 24.622C76.4601 25.3593 76.6421 25.9287 77.0061 26.33C77.3794 26.722 77.8461 26.918 78.4061 26.918ZM86.1718 22.354V26.106C86.1718 26.3673 86.2325 26.5587 86.3538 26.68C86.4845 26.792 86.6992 26.848 86.9978 26.848H87.9078V28.5H86.6758C85.0238 28.5 84.1978 27.6973 84.1978 26.092V22.354H83.2738V20.744H84.1978V18.826H86.1718V20.744H87.9078V22.354H86.1718ZM100.07 20.744L97.8016 28.5H95.6876L94.2736 23.082L92.8596 28.5H90.7316L88.4496 20.744H90.4376L91.8096 26.652L93.2936 20.744H95.3656L96.8216 26.638L98.1936 20.744H100.07ZM100.626 24.594C100.626 23.81 100.78 23.1147 101.088 22.508C101.405 21.9013 101.83 21.4347 102.362 21.108C102.903 20.7813 103.505 20.618 104.168 20.618C104.747 20.618 105.251 20.7347 105.68 20.968C106.119 21.2013 106.469 21.4953 106.73 21.85V20.744H108.704V28.5H106.73V27.366C106.478 27.73 106.128 28.0333 105.68 28.276C105.241 28.5093 104.733 28.626 104.154 28.626C103.501 28.626 102.903 28.458 102.362 28.122C101.83 27.786 101.405 27.3147 101.088 26.708C100.78 26.092 100.626 25.3873 100.626 24.594ZM106.73 24.622C106.73 24.146 106.637 23.74 106.45 23.404C106.263 23.0587 106.011 22.7973 105.694 22.62C105.377 22.4333 105.036 22.34 104.672 22.34C104.308 22.34 103.972 22.4287 103.664 22.606C103.356 22.7833 103.104 23.0447 102.908 23.39C102.721 23.726 102.628 24.1273 102.628 24.594C102.628 25.0607 102.721 25.4713 102.908 25.826C103.104 26.1713 103.356 26.4373 103.664 26.624C103.981 26.8107 104.317 26.904 104.672 26.904C105.036 26.904 105.377 26.8153 105.694 26.638C106.011 26.4513 106.263 26.19 106.45 25.854C106.637 25.5087 106.73 25.098 106.73 24.622ZM114.916 20.632C115.84 20.632 116.587 20.926 117.156 21.514C117.726 22.0927 118.01 22.9047 118.01 23.95V28.5H116.05V24.216C116.05 23.6 115.896 23.1287 115.588 22.802C115.28 22.466 114.86 22.298 114.328 22.298C113.787 22.298 113.358 22.466 113.04 22.802C112.732 23.1287 112.578 23.6 112.578 24.216V28.5H110.618V20.744H112.578V21.71C112.84 21.374 113.171 21.1127 113.572 20.926C113.983 20.73 114.431 20.632 114.916 20.632ZM119.37 24.594C119.37 23.81 119.524 23.1147 119.832 22.508C120.15 21.9013 120.574 21.4347 121.106 21.108C121.648 20.7813 122.25 20.618 122.912 20.618C123.491 20.618 123.995 20.7347 124.424 20.968C124.863 21.2013 125.213 21.4953 125.474 21.85V20.744H127.448V28.5H125.474V27.366C125.222 27.73 124.872 28.0333 124.424 28.276C123.986 28.5093 123.477 28.626 122.898 28.626C122.245 28.626 121.648 28.458 121.106 28.122C120.574 27.786 120.15 27.3147 119.832 26.708C119.524 26.092 119.37 25.3873 119.37 24.594ZM125.474 24.622C125.474 24.146 125.381 23.74 125.194 23.404C125.008 23.0587 124.756 22.7973 124.438 22.62C124.121 22.4333 123.78 22.34 123.416 22.34C123.052 22.34 122.716 22.4287 122.408 22.606C122.1 22.7833 121.848 23.0447 121.652 23.39C121.466 23.726 121.372 24.1273 121.372 24.594C121.372 25.0607 121.466 25.4713 121.652 25.826C121.848 26.1713 122.1 26.4373 122.408 26.624C122.726 26.8107 123.062 26.904 123.416 26.904C123.78 26.904 124.121 26.8153 124.438 26.638C124.756 26.4513 125.008 26.19 125.194 25.854C125.381 25.5087 125.474 25.098 125.474 24.622Z" fill="black"/>
</svg>
