<svg width="137" height="48" viewBox="0 0 137 48" fill="none" xmlns="http://www.w3.org/2000/svg">
<rect x="0.5" y="0.5" width="136" height="47" rx="23.5" fill="white"/>
<rect x="0.5" y="0.5" width="136" height="47" rx="23.5" stroke="#FF9F2F"/>
<path d="M24.8438 24V35.3688C27.7125 38.1844 31.6438 39.9375 36 39.9375C44.8188 39.9375 51.9375 32.8188 51.9375 24H24.8438Z" fill="#83BF4F"/>
<path d="M24.8438 24H51.9375C51.9375 15.1812 44.8188 8.0625 36 8.0625C31.6438 8.0625 27.7125 9.81563 24.8438 12.6313V24Z" fill="#42ADE2"/>
<path d="M24.8438 12.6313C21.8688 15.5001 20.0625 19.5376 20.0625 24.0001C20.0625 28.4626 21.8688 32.5001 24.8438 35.3688L36.2125 24.0001L24.8438 12.6313Z" fill="#F9F9F9"/>
<path d="M26.4375 25.9656L28.7219 27.7188L27.8719 24.9031L30.1562 23.0438H27.3406L26.4375 20.2812L25.5875 23.0438H22.7188L25.0031 24.9031L24.1531 27.7188L26.4375 25.9656Z" fill="#C94747"/>
<path d="M67.382 18.728C68.4087 18.728 69.3093 18.9287 70.084 19.33C70.868 19.7313 71.47 20.3053 71.89 21.052C72.3193 21.7893 72.534 22.648 72.534 23.628C72.534 24.608 72.3193 25.4667 71.89 26.204C71.47 26.932 70.868 27.4967 70.084 27.898C69.3093 28.2993 68.4087 28.5 67.382 28.5H63.966V18.728H67.382ZM67.312 26.834C68.3387 26.834 69.132 26.554 69.692 25.994C70.252 25.434 70.532 24.6453 70.532 23.628C70.532 22.6107 70.252 21.8173 69.692 21.248C69.132 20.6693 68.3387 20.38 67.312 20.38H65.926V26.834H67.312ZM74.9952 19.82C74.6405 19.82 74.3465 19.7127 74.1132 19.498C73.8892 19.274 73.7772 18.9987 73.7772 18.672C73.7772 18.3453 73.8892 18.0747 74.1132 17.86C74.3465 17.636 74.6405 17.524 74.9952 17.524C75.3405 17.524 75.6252 17.636 75.8492 17.86C76.0732 18.0747 76.1852 18.3453 76.1852 18.672C76.1852 18.9987 76.0732 19.274 75.8492 19.498C75.6252 19.7127 75.3405 19.82 74.9952 19.82ZM75.9612 29.774C75.9612 30.6327 75.7465 31.2487 75.3172 31.622C74.8972 32.0047 74.2905 32.196 73.4972 32.196H72.6292V30.53H73.1892C73.4878 30.53 73.6978 30.4693 73.8192 30.348C73.9405 30.236 74.0012 30.0493 74.0012 29.788V20.744H75.9612V29.774ZM78.8916 19.82C78.5463 19.82 78.257 19.7127 78.0236 19.498C77.7996 19.274 77.6876 18.9987 77.6876 18.672C77.6876 18.3453 77.7996 18.0747 78.0236 17.86C78.257 17.636 78.5463 17.524 78.8916 17.524C79.237 17.524 79.5216 17.636 79.7456 17.86C79.979 18.0747 80.0956 18.3453 80.0956 18.672C80.0956 18.9987 79.979 19.274 79.7456 19.498C79.5216 19.7127 79.237 19.82 78.8916 19.82ZM79.8576 20.744V28.5H77.8976V20.744H79.8576ZM83.7541 21.878C84.0061 21.5047 84.3515 21.2013 84.7901 20.968C85.2381 20.7347 85.7468 20.618 86.3161 20.618C86.9788 20.618 87.5761 20.7813 88.1081 21.108C88.6495 21.4347 89.0741 21.9013 89.3821 22.508C89.6995 23.1053 89.8581 23.8007 89.8581 24.594C89.8581 25.3873 89.6995 26.092 89.3821 26.708C89.0741 27.3147 88.6495 27.786 88.1081 28.122C87.5761 28.458 86.9788 28.626 86.3161 28.626C85.7375 28.626 85.2288 28.514 84.7901 28.29C84.3608 28.0567 84.0155 27.758 83.7541 27.394V28.5H81.7941V18.14H83.7541V21.878ZM87.8561 24.594C87.8561 24.1273 87.7581 23.726 87.5621 23.39C87.3755 23.0447 87.1235 22.7833 86.8061 22.606C86.4981 22.4287 86.1621 22.34 85.7981 22.34C85.4435 22.34 85.1075 22.4333 84.7901 22.62C84.4821 22.7973 84.2301 23.0587 84.0341 23.404C83.8475 23.7493 83.7541 24.1553 83.7541 24.622C83.7541 25.0887 83.8475 25.4947 84.0341 25.84C84.2301 26.1853 84.4821 26.4513 84.7901 26.638C85.1075 26.8153 85.4435 26.904 85.7981 26.904C86.1621 26.904 86.4981 26.8107 86.8061 26.624C87.1235 26.4373 87.3755 26.1713 87.5621 25.826C87.7581 25.4807 87.8561 25.07 87.8561 24.594ZM94.7264 28.626C93.9797 28.626 93.3077 28.4627 92.7104 28.136C92.1131 27.8 91.6417 27.3287 91.2964 26.722C90.9604 26.1153 90.7924 25.4153 90.7924 24.622C90.7924 23.8287 90.9651 23.1287 91.3104 22.522C91.6651 21.9153 92.1457 21.4487 92.7524 21.122C93.3591 20.786 94.0357 20.618 94.7824 20.618C95.5291 20.618 96.2057 20.786 96.8124 21.122C97.4191 21.4487 97.8951 21.9153 98.2404 22.522C98.5951 23.1287 98.7724 23.8287 98.7724 24.622C98.7724 25.4153 98.5904 26.1153 98.2264 26.722C97.8717 27.3287 97.3864 27.8 96.7704 28.136C96.1637 28.4627 95.4824 28.626 94.7264 28.626ZM94.7264 26.918C95.0811 26.918 95.4124 26.834 95.7204 26.666C96.0377 26.4887 96.2897 26.2273 96.4764 25.882C96.6631 25.5367 96.7564 25.1167 96.7564 24.622C96.7564 23.8847 96.5604 23.32 96.1684 22.928C95.7857 22.5267 95.3144 22.326 94.7544 22.326C94.1944 22.326 93.7231 22.5267 93.3404 22.928C92.9671 23.32 92.7804 23.8847 92.7804 24.622C92.7804 25.3593 92.9624 25.9287 93.3264 26.33C93.6997 26.722 94.1664 26.918 94.7264 26.918ZM107.532 20.744V28.5H105.558V27.52C105.306 27.856 104.975 28.122 104.564 28.318C104.163 28.5047 103.724 28.598 103.248 28.598C102.641 28.598 102.105 28.472 101.638 28.22C101.171 27.9587 100.803 27.5807 100.532 27.086C100.271 26.582 100.14 25.9847 100.14 25.294V20.744H102.1V25.014C102.1 25.63 102.254 26.106 102.562 26.442C102.87 26.7687 103.29 26.932 103.822 26.932C104.363 26.932 104.788 26.7687 105.096 26.442C105.404 26.106 105.558 25.63 105.558 25.014V20.744H107.532ZM111.748 22.354V26.106C111.748 26.3673 111.809 26.5587 111.93 26.68C112.061 26.792 112.275 26.848 112.574 26.848H113.484V28.5H112.252C110.6 28.5 109.774 27.6973 109.774 26.092V22.354H108.85V20.744H109.774V18.826H111.748V20.744H113.484V22.354H111.748ZM115.888 19.82C115.542 19.82 115.253 19.7127 115.02 19.498C114.796 19.274 114.684 18.9987 114.684 18.672C114.684 18.3453 114.796 18.0747 115.02 17.86C115.253 17.636 115.542 17.524 115.888 17.524C116.233 17.524 116.518 17.636 116.742 17.86C116.975 18.0747 117.092 18.3453 117.092 18.672C117.092 18.9987 116.975 19.274 116.742 19.498C116.518 19.7127 116.233 19.82 115.888 19.82ZM116.854 20.744V28.5H114.894V20.744H116.854Z" fill="black"/>
</svg>
