<svg width="137" height="48" viewBox="0 0 137 48" fill="none" xmlns="http://www.w3.org/2000/svg">
<rect x="0.5" y="0.5" width="136" height="47" rx="23.5" fill="white"/>
<rect x="0.5" y="0.5" width="136" height="47" rx="23.5" stroke="#FF9F2F"/>
<path d="M36 8.0625C29.0406 8.0625 23.1438 12.525 20.9656 18.6875H51.0344C48.8563 12.525 42.9594 8.0625 36 8.0625Z" fill="#ED4C5C"/>
<path d="M36 39.9375C42.9594 39.9375 48.8563 35.5281 51.0344 29.3125H20.9656C23.1438 35.5281 29.0406 39.9375 36 39.9375Z" fill="#3E4347"/>
<path d="M20.9656 18.6875C20.3813 20.3344 20.0625 22.1406 20.0625 24C20.0625 25.8594 20.3813 27.6656 20.9656 29.3125H51.0344C51.6187 27.6656 51.9375 25.8594 51.9375 24C51.9375 22.1406 51.6187 20.3344 51.0344 18.6875H20.9656Z" fill="#F9F9F9"/>
<path d="M35.2563 20.3343C35.4156 20.228 35.5219 20.3343 35.6281 20.4405C35.6813 20.5468 35.6813 20.8655 35.575 21.2374C35.5219 21.4499 35.3625 21.6624 35.2563 21.8218C35.4688 21.8218 35.7344 21.7687 36 21.6624C36.2656 21.7687 36.4781 21.8218 36.7438 21.8218C36.6375 21.6093 36.5313 21.1843 36.5844 20.8655C36.5844 20.3874 36.5313 20.228 36.425 20.1218C36.3188 20.0155 36.0531 19.9624 35.8938 19.9624C35.7875 19.9624 35.7875 20.0155 35.7875 20.0155C35.575 19.9624 35.4156 19.9624 35.3094 20.0155C35.2031 20.1218 35.2031 20.3874 35.2563 20.3343Z" fill="white"/>
<path d="M38.8156 21.9281C38.7094 21.3437 38.125 21.5031 37.6469 21.7687C37.4344 21.875 37.2219 21.9812 37.0094 21.9812H36.85C36.5844 21.9812 36.2656 21.9281 36 21.8218C35.7344 21.9281 35.4156 21.9812 35.15 21.9812H35.0438C34.7781 21.9812 34.5656 21.875 34.3531 21.7156C33.9281 21.5031 33.3438 21.3437 33.1844 21.875C33.2906 21.8218 33.3969 21.7156 33.45 21.7156L33.2375 26.8156L33.3438 26.7093L33.5563 21.7687C33.6094 21.8218 33.8219 22.0343 33.875 22.0343L33.7156 26.3375L33.875 26.1781L34.0344 22.0875C34.0875 22.1406 34.2469 22.2468 34.3 22.3L34.1406 25.8593L34.5656 25.4875L34.9906 24.0531C34.6188 23.2562 34.6719 22.5656 34.6719 22.5656H34.7781C35.0438 22.5656 35.6281 22.4062 35.8938 22.2468C35.9469 22.2468 35.9469 22.1937 36 22.1937C36 22.2468 36.0531 22.2468 36.1063 22.3C36.3719 22.4593 36.9563 22.6187 37.2219 22.6187H37.3281C37.3281 22.6187 37.3813 23.3093 37.0094 24.1062L37.3813 25.4875L37.8063 25.8593L37.6469 22.3531C37.7 22.3 37.8063 22.1937 37.9125 22.1406L38.0719 26.125L38.2313 26.2843L38.0719 22.0343C38.125 21.9812 38.3375 21.8218 38.3906 21.7687L38.6031 26.6562L38.7094 26.7625L38.4969 21.7156C38.55 21.7687 38.7094 21.875 38.8156 21.9281Z" fill="white"/>
<path d="M35.5219 22.778V24.8498C35.5219 24.8498 35.5219 24.903 35.575 24.903C35.6282 25.0092 35.7344 25.0623 35.7875 25.1686L35.9469 25.328L36.1063 25.1686L36.3719 24.903V22.8842C36.2125 22.8311 36.0532 22.778 35.9469 22.6717C35.8938 22.6186 35.7344 22.6717 35.5219 22.778Z" fill="white"/>
<path d="M38.2844 27.1343C38.2844 26.8687 38.0188 26.8687 37.8063 26.9218C37.7531 26.9218 37.7531 26.9218 37.7 26.9749L37.3812 25.8062L39.1344 27.5062L38.9219 21.9812C38.8688 21.1312 38.1781 21.3437 37.7 21.6624C37.4344 21.8218 37.2219 21.928 36.9562 21.928C36.5844 21.2905 36.7969 20.4405 36.5312 20.228C36.425 20.1218 36.0531 19.9624 35.7875 19.9624C35.6281 19.9624 35.6812 20.0687 35.6812 20.0687C35.4156 20.0155 35.2031 20.0155 35.0969 20.1218C34.9906 20.1749 35.0969 20.7062 35.15 20.5999C35.3094 20.4405 35.3625 20.4937 35.4688 20.653C35.575 20.8124 35.3625 21.4499 35.0969 21.928C34.7781 21.928 34.5125 21.8218 34.2469 21.6624C33.7156 21.3437 33.025 21.1843 33.025 21.9812L32.8125 27.453L34.5656 25.8062L34.2469 26.9218C34.1938 26.9218 34.1938 26.9218 34.1406 26.8687C33.9281 26.8155 33.6625 26.8155 33.6625 27.0812C33.3438 27.028 33.2375 27.5062 33.5562 27.6124C33.5562 27.7718 33.5562 27.878 33.7687 27.878C34.2469 28.0374 35.0969 28.0905 35.9469 28.0905C36.7969 28.0905 37.6469 28.0374 38.125 27.878C38.3375 27.8249 38.3375 27.7187 38.3375 27.6124C38.7625 27.5062 38.6031 27.028 38.2844 27.1343ZM35.575 24.8499C35.575 24.7968 35.575 24.7968 35.575 24.8499L35.5219 24.7968V22.778C35.7344 22.7249 35.8937 22.6718 36 22.5655C36.1063 22.6718 36.2656 22.7249 36.425 22.778V24.7968C36.3187 24.903 36.2656 25.0093 36.1594 25.0624L36 25.2218L35.8406 25.0624C35.7344 25.0093 35.6813 24.903 35.575 24.8499ZM35.575 21.2905C35.6813 20.9187 35.6812 20.5999 35.6281 20.4937C35.5219 20.3874 35.4156 20.2812 35.2563 20.3874C35.2031 20.4405 35.2031 20.1749 35.3094 20.1218C35.4156 20.0687 35.575 20.0687 35.7875 20.1218C35.7875 20.1218 35.7875 20.0155 35.8937 20.0687C36.0531 20.0687 36.3719 20.1749 36.425 20.228C36.4781 20.2812 36.5844 20.4937 36.5844 20.9718C36.5844 21.2905 36.6375 21.7155 36.7438 21.928C36.5313 21.928 36.2656 21.8749 36 21.7687C35.7344 21.8749 35.5219 21.928 35.2563 21.928C35.3625 21.7155 35.5219 21.503 35.575 21.2905ZM34.1938 26.0187L34.3531 22.4593C34.3 22.4062 34.1937 22.2999 34.0875 22.2468L33.875 26.2843L33.7156 26.4437L33.875 22.1405C33.8219 22.0874 33.6094 21.928 33.5562 21.8749L33.3438 26.8155L33.2375 26.9218L33.45 21.8218C33.3969 21.8218 33.2375 21.8749 33.1844 21.9812C33.3438 21.4499 33.9281 21.6093 34.3531 21.8749C34.5656 22.0343 34.8313 22.0874 35.0438 22.1405H35.15C35.4156 22.1405 35.6813 22.0874 36 21.9812C36.3187 22.0874 36.5844 22.1405 36.85 22.1405H37.0094C37.2219 22.0874 37.4344 22.0343 37.6469 21.928C38.125 21.6624 38.7094 21.503 38.8156 22.0874C38.7094 22.0343 38.55 21.928 38.4969 21.928L38.7094 26.9749L38.6031 26.8687L38.3906 21.8749C38.3375 21.928 38.125 22.1405 38.0719 22.1405L38.2313 26.3905L38.0719 26.2312L37.9125 22.2468C37.8594 22.2999 37.7 22.4062 37.6469 22.4593L37.8063 25.9655L37.3812 25.5937L37.0094 24.2124C37.3813 23.4155 37.3281 22.7249 37.3281 22.7249H37.2219C36.9562 22.7249 36.3719 22.6187 36.1063 22.4062C36.0531 22.4062 36.0531 22.353 36 22.2999C36 22.2999 35.9469 22.353 35.8937 22.353C35.6281 22.5124 35.0438 22.6718 34.7781 22.6718H34.6719C34.6719 22.6718 34.6188 23.3624 34.9906 24.1593L34.5656 25.5937L34.1938 26.0187ZM36 27.0812H35.4156L35.7875 25.2749C35.8406 25.328 35.8937 25.3812 36 25.4343C36.0531 25.3812 36.1594 25.328 36.2125 25.2749L36.6375 27.0812H36Z" fill="#C09300"/>
<path d="M79.926 20.31V22.76H83.216V24.314H79.926V26.904H83.636V28.5H77.966V18.714H83.636V20.31H79.926ZM88.4552 20.618C89.0338 20.618 89.5425 20.7347 89.9812 20.968C90.4198 21.192 90.7652 21.486 91.0172 21.85V20.744H92.9912V28.556C92.9912 29.2747 92.8465 29.914 92.5572 30.474C92.2678 31.0433 91.8338 31.4913 91.2552 31.818C90.6765 32.154 89.9765 32.322 89.1552 32.322C88.0538 32.322 87.1485 32.0653 86.4392 31.552C85.7392 31.0387 85.3425 30.3387 85.2492 29.452H87.1952C87.2978 29.8067 87.5172 30.0867 87.8532 30.292C88.1985 30.5067 88.6138 30.614 89.0992 30.614C89.6685 30.614 90.1305 30.4413 90.4852 30.096C90.8398 29.76 91.0172 29.2467 91.0172 28.556V27.352C90.7652 27.716 90.4152 28.0193 89.9672 28.262C89.5285 28.5047 89.0245 28.626 88.4552 28.626C87.8018 28.626 87.2045 28.458 86.6632 28.122C86.1218 27.786 85.6925 27.3147 85.3752 26.708C85.0672 26.092 84.9132 25.3873 84.9132 24.594C84.9132 23.81 85.0672 23.1147 85.3752 22.508C85.6925 21.9013 86.1172 21.4347 86.6492 21.108C87.1905 20.7813 87.7925 20.618 88.4552 20.618ZM91.0172 24.622C91.0172 24.146 90.9238 23.74 90.7372 23.404C90.5505 23.0587 90.2985 22.7973 89.9812 22.62C89.6638 22.4333 89.3232 22.34 88.9592 22.34C88.5952 22.34 88.2592 22.4287 87.9512 22.606C87.6432 22.7833 87.3912 23.0447 87.1952 23.39C87.0085 23.726 86.9152 24.1273 86.9152 24.594C86.9152 25.0607 87.0085 25.4713 87.1952 25.826C87.3912 26.1713 87.6432 26.4373 87.9512 26.624C88.2685 26.8107 88.6045 26.904 88.9592 26.904C89.3232 26.904 89.6638 26.8153 89.9812 26.638C90.2985 26.4513 90.5505 26.19 90.7372 25.854C90.9238 25.5087 91.0172 25.098 91.0172 24.622ZM102.325 20.744L97.5235 32.168H95.4375L97.1175 28.304L94.0095 20.744H96.2075L98.2095 26.162L100.239 20.744H102.325ZM105.342 21.864C105.594 21.5093 105.939 21.2153 106.378 20.982C106.826 20.7393 107.335 20.618 107.904 20.618C108.567 20.618 109.164 20.7813 109.696 21.108C110.237 21.4347 110.662 21.9013 110.97 22.508C111.287 23.1053 111.446 23.8007 111.446 24.594C111.446 25.3873 111.287 26.092 110.97 26.708C110.662 27.3147 110.237 27.786 109.696 28.122C109.164 28.458 108.567 28.626 107.904 28.626C107.335 28.626 106.831 28.5093 106.392 28.276C105.963 28.0427 105.613 27.7487 105.342 27.394V32.196H103.382V20.744H105.342V21.864ZM109.444 24.594C109.444 24.1273 109.346 23.726 109.15 23.39C108.963 23.0447 108.711 22.7833 108.394 22.606C108.086 22.4287 107.75 22.34 107.386 22.34C107.031 22.34 106.695 22.4333 106.378 22.62C106.07 22.7973 105.818 23.0587 105.622 23.404C105.435 23.7493 105.342 24.1553 105.342 24.622C105.342 25.0887 105.435 25.4947 105.622 25.84C105.818 26.1853 106.07 26.4513 106.378 26.638C106.695 26.8153 107.031 26.904 107.386 26.904C107.75 26.904 108.086 26.8107 108.394 26.624C108.711 26.4373 108.963 26.1713 109.15 25.826C109.346 25.4807 109.444 25.07 109.444 24.594ZM115.152 22.354V26.106C115.152 26.3673 115.213 26.5587 115.334 26.68C115.465 26.792 115.68 26.848 115.978 26.848H116.888V28.5H115.656C114.004 28.5 113.178 27.6973 113.178 26.092V22.354H112.254V20.744H113.178V18.826H115.152V20.744H116.888V22.354H115.152Z" fill="black"/>
</svg>
