<svg width="137" height="48" viewBox="0 0 137 48" fill="none" xmlns="http://www.w3.org/2000/svg">
<rect x="0.5" y="0.5" width="136" height="47" rx="23.5" fill="white"/>
<rect x="0.5" y="0.5" width="136" height="47" rx="23.5" stroke="#FF9F2F"/>
<path d="M36 39.9375C42.9594 39.9375 48.8563 35.5281 51.0344 29.3125H20.9656C23.1438 35.5281 29.0406 39.9375 36 39.9375Z" fill="#ED4C5C"/>
<path d="M36 8.0625C29.0406 8.0625 23.1438 12.525 20.9656 18.6875H51.0344C48.8563 12.525 42.9594 8.0625 36 8.0625Z" fill="#699635"/>
<path d="M51.0344 29.3125C51.6187 27.6656 51.9375 25.8594 51.9375 24C51.9375 22.1406 51.6187 20.3344 51.0344 18.6875H20.9656C20.3813 20.3344 20.0625 22.1406 20.0625 24C20.0625 25.8594 20.3813 27.6656 20.9656 29.3125H51.0344Z" fill="#FFCE31"/>
<path d="M36 31.4375C40.1076 31.4375 43.4375 28.1076 43.4375 24C43.4375 19.8924 40.1076 16.5625 36 16.5625C31.8924 16.5625 28.5625 19.8924 28.5625 24C28.5625 28.1076 31.8924 31.4375 36 31.4375Z" fill="#428BC1"/>
<path d="M38.0188 24.6906L41.2594 22.4062H37.275L36 18.6875L34.7781 22.4062H30.7938L34.0344 24.6906L32.8125 28.4094L36 26.125L39.2406 28.4094L38.0188 24.6906ZM39.8781 22.8312L37.8594 24.2656L37.3813 22.8312H39.8781ZM34.5125 24.5312L35.0969 22.8312H36.9563L37.5406 24.5312L36 25.5938L34.5125 24.5312ZM36 20.0688L36.7969 22.4062H35.2563L36 20.0688ZM32.1219 22.8312H34.6188L34.1406 24.2656L32.1219 22.8312ZM33.6094 27.2938L34.3531 24.9562L35.6281 25.8594L33.6094 27.2938ZM38.3906 27.2938L36.3719 25.8594L37.6469 24.9562L38.3906 27.2938Z" fill="#FFCE31"/>
<path d="M35.7875 26.8156V29.3125H36.2125V26.8156L36 26.6562L35.7875 26.8156ZM32.7594 24.3719L30.6875 24.9562L30.7938 25.3812L33.2375 24.6906L32.7594 24.3719ZM34.4594 21.9281L34.5656 21.5031L32.9188 19.4844L32.6 19.75L34.3531 21.9281H34.4594ZM37.6469 21.9281L39.4 19.75L39.0812 19.4844L37.4344 21.5031L37.5406 21.9281H37.6469ZM39.2406 24.3719L38.7625 24.6906L41.2062 25.3812L41.3125 24.9562L39.2406 24.3719Z" fill="#FFCE31"/>
<path d="M62.926 20.31V22.76H66.216V24.314H62.926V26.904H66.636V28.5H60.966V18.714H66.636V20.31H62.926ZM70.6992 22.354V26.106C70.6992 26.3673 70.7598 26.5587 70.8812 26.68C71.0118 26.792 71.2265 26.848 71.5252 26.848H72.4352V28.5H71.2032C69.5512 28.5 68.7252 27.6973 68.7252 26.092V22.354H67.8012V20.744H68.7252V18.826H70.6992V20.744H72.4352V22.354H70.6992ZM78.2129 20.632C78.8009 20.632 79.3236 20.7627 79.7809 21.024C80.2382 21.276 80.5929 21.654 80.8449 22.158C81.1062 22.6527 81.2369 23.25 81.2369 23.95V28.5H79.2769V24.216C79.2769 23.6 79.1229 23.1287 78.8149 22.802C78.5069 22.466 78.0869 22.298 77.5549 22.298C77.0136 22.298 76.5842 22.466 76.2669 22.802C75.9589 23.1287 75.8049 23.6 75.8049 24.216V28.5H73.8449V18.14H75.8049V21.71C76.0569 21.374 76.3929 21.1127 76.8129 20.926C77.2329 20.73 77.6996 20.632 78.2129 20.632ZM84.0948 19.82C83.7494 19.82 83.4601 19.7127 83.2268 19.498C83.0028 19.274 82.8908 18.9987 82.8908 18.672C82.8908 18.3453 83.0028 18.0747 83.2268 17.86C83.4601 17.636 83.7494 17.524 84.0948 17.524C84.4401 17.524 84.7248 17.636 84.9488 17.86C85.1821 18.0747 85.2988 18.3453 85.2988 18.672C85.2988 18.9987 85.1821 19.274 84.9488 19.498C84.7248 19.7127 84.4401 19.82 84.0948 19.82ZM85.0608 20.744V28.5H83.1008V20.744H85.0608ZM90.4413 28.626C89.6946 28.626 89.0226 28.4627 88.4253 28.136C87.8279 27.8 87.3566 27.3287 87.0113 26.722C86.6753 26.1153 86.5073 25.4153 86.5073 24.622C86.5073 23.8287 86.6799 23.1287 87.0253 22.522C87.3799 21.9153 87.8606 21.4487 88.4673 21.122C89.0739 20.786 89.7506 20.618 90.4973 20.618C91.2439 20.618 91.9206 20.786 92.5273 21.122C93.1339 21.4487 93.6099 21.9153 93.9553 22.522C94.3099 23.1287 94.4873 23.8287 94.4873 24.622C94.4873 25.4153 94.3053 26.1153 93.9412 26.722C93.5866 27.3287 93.1013 27.8 92.4853 28.136C91.8786 28.4627 91.1973 28.626 90.4413 28.626ZM90.4413 26.918C90.7959 26.918 91.1273 26.834 91.4353 26.666C91.7526 26.4887 92.0046 26.2273 92.1913 25.882C92.3779 25.5367 92.4713 25.1167 92.4713 24.622C92.4713 23.8847 92.2753 23.32 91.8833 22.928C91.5006 22.5267 91.0293 22.326 90.4693 22.326C89.9093 22.326 89.4379 22.5267 89.0553 22.928C88.6819 23.32 88.4953 23.8847 88.4953 24.622C88.4953 25.3593 88.6773 25.9287 89.0413 26.33C89.4146 26.722 89.8813 26.918 90.4413 26.918ZM97.885 21.864C98.137 21.5093 98.4823 21.2153 98.921 20.982C99.369 20.7393 99.8777 20.618 100.447 20.618C101.11 20.618 101.707 20.7813 102.239 21.108C102.78 21.4347 103.205 21.9013 103.513 22.508C103.83 23.1053 103.989 23.8007 103.989 24.594C103.989 25.3873 103.83 26.092 103.513 26.708C103.205 27.3147 102.78 27.786 102.239 28.122C101.707 28.458 101.11 28.626 100.447 28.626C99.8777 28.626 99.3737 28.5093 98.935 28.276C98.5057 28.0427 98.1557 27.7487 97.885 27.394V32.196H95.925V20.744H97.885V21.864ZM101.987 24.594C101.987 24.1273 101.889 23.726 101.693 23.39C101.506 23.0447 101.254 22.7833 100.937 22.606C100.629 22.4287 100.293 22.34 99.929 22.34C99.5743 22.34 99.2383 22.4333 98.921 22.62C98.613 22.7973 98.361 23.0587 98.165 23.404C97.9783 23.7493 97.885 24.1553 97.885 24.622C97.885 25.0887 97.9783 25.4947 98.165 25.84C98.361 26.1853 98.613 26.4513 98.921 26.638C99.2383 26.8153 99.5743 26.904 99.929 26.904C100.293 26.904 100.629 26.8107 100.937 26.624C101.254 26.4373 101.506 26.1713 101.693 25.826C101.889 25.4807 101.987 25.07 101.987 24.594ZM106.407 19.82C106.062 19.82 105.773 19.7127 105.539 19.498C105.315 19.274 105.203 18.9987 105.203 18.672C105.203 18.3453 105.315 18.0747 105.539 17.86C105.773 17.636 106.062 17.524 106.407 17.524C106.753 17.524 107.037 17.636 107.261 17.86C107.495 18.0747 107.611 18.3453 107.611 18.672C107.611 18.9987 107.495 19.274 107.261 19.498C107.037 19.7127 106.753 19.82 106.407 19.82ZM107.373 20.744V28.5H105.413V20.744H107.373ZM108.806 24.594C108.806 23.81 108.96 23.1147 109.268 22.508C109.585 21.9013 110.01 21.4347 110.542 21.108C111.083 20.7813 111.685 20.618 112.348 20.618C112.926 20.618 113.43 20.7347 113.86 20.968C114.298 21.2013 114.648 21.4953 114.91 21.85V20.744H116.884V28.5H114.91V27.366C114.658 27.73 114.308 28.0333 113.86 28.276C113.421 28.5093 112.912 28.626 112.334 28.626C111.68 28.626 111.083 28.458 110.542 28.122C110.01 27.786 109.585 27.3147 109.268 26.708C108.96 26.092 108.806 25.3873 108.806 24.594ZM114.91 24.622C114.91 24.146 114.816 23.74 114.63 23.404C114.443 23.0587 114.191 22.7973 113.874 22.62C113.556 22.4333 113.216 22.34 112.852 22.34C112.488 22.34 112.152 22.4287 111.844 22.606C111.536 22.7833 111.284 23.0447 111.088 23.39C110.901 23.726 110.808 24.1273 110.808 24.594C110.808 25.0607 110.901 25.4713 111.088 25.826C111.284 26.1713 111.536 26.4373 111.844 26.624C112.161 26.8107 112.497 26.904 112.852 26.904C113.216 26.904 113.556 26.8153 113.874 26.638C114.191 26.4513 114.443 26.19 114.63 25.854C114.816 25.5087 114.91 25.098 114.91 24.622Z" fill="black"/>
</svg>
