<svg width="137" height="48" viewBox="0 0 137 48" fill="none" xmlns="http://www.w3.org/2000/svg">
<rect x="0.5" y="0.5" width="136" height="47" rx="23.5" fill="white"/>
<rect x="0.5" y="0.5" width="136" height="47" rx="23.5" stroke="#FF9F2F"/>
<path d="M36 8.0625C29.4656 8.0625 23.8344 11.9937 21.3906 17.625H50.6094C48.1656 11.9937 42.5344 8.0625 36 8.0625Z" fill="#3E4347"/>
<path d="M36 39.9375C42.5344 39.9375 48.1656 36.0063 50.6094 30.375H21.3906C23.8344 36.0063 29.4656 39.9375 36 39.9375Z" fill="#75A843"/>
<path d="M51.9375 24C51.9375 22.5125 51.725 21.0781 51.3531 19.75H20.6469C20.275 21.0781 20.0625 22.5125 20.0625 24C20.0625 25.4875 20.275 26.9219 20.6469 28.25H51.3531C51.725 26.9219 51.9375 25.4875 51.9375 24Z" fill="#C94747"/>
<path d="M20.9656 29.3125C21.0719 29.6844 21.2312 30.0031 21.3906 30.375H50.6094C50.7687 30.0031 50.9281 29.6844 51.0344 29.3125C51.1406 28.9406 51.2469 28.6219 51.3531 28.25H20.6469C20.7531 28.6219 20.8594 28.9406 20.9656 29.3125ZM51.0344 18.6875C50.9281 18.3156 50.7687 17.9969 50.6094 17.625H21.3906C21.2312 17.9969 21.0719 18.3156 20.9656 18.6875C20.8594 19.0594 20.7531 19.3781 20.6469 19.75H51.3531C51.2469 19.3781 51.1406 19.0594 51.0344 18.6875Z" fill="white"/>
<path d="M29.7312 34.7845L30.1031 34.997L40.3562 17.2532C40.9406 17.0938 41.2593 16.5095 41.6312 15.9782C41.8437 15.6063 42.7468 14.0657 43.1187 12.1001C41.5781 13.4282 40.7281 14.9157 40.5156 15.3407C40.1968 15.9251 39.8781 16.4563 40.0374 17.0938L29.7312 34.7845Z" fill="white"/>
<path d="M42.2687 34.7845L41.8968 34.997L31.6437 17.2532C31.0594 17.0938 30.7406 16.5095 30.3687 15.9782C30.1562 15.6063 29.2531 14.0657 28.8812 12.1001C30.4219 13.4282 31.2719 14.9157 31.4844 15.3407C31.8031 15.9251 32.1219 16.4563 31.9625 17.0938L42.2687 34.7845Z" fill="white"/>
<path d="M40.25 24C40.25 29.8438 36 34.625 36 34.625C36 34.625 31.75 29.8438 31.75 24C31.75 18.1562 36 13.375 36 13.375C36 13.375 40.25 18.1562 40.25 24Z" fill="#C94747"/>
<path d="M32.8656 28.25C33.7688 27.3469 34.4062 25.8063 34.4062 24C34.4062 22.1937 33.8219 20.6531 32.8656 19.75C32.4938 20.9719 32.2812 22.4594 32.2812 24C32.2812 25.5406 32.4938 27.0281 32.8656 28.25ZM39.1344 19.75C38.2313 20.6531 37.5938 22.1937 37.5938 24C37.5938 25.8063 38.1781 27.3469 39.1344 28.25C39.5063 27.0281 39.7188 25.5406 39.7188 24C39.7188 22.4594 39.5063 20.9719 39.1344 19.75Z" fill="#3E4347"/>
<path d="M36 25.2749C36.4695 25.2749 36.85 24.704 36.85 23.9999C36.85 23.2957 36.4695 22.7249 36 22.7249C35.5306 22.7249 35.15 23.2957 35.15 23.9999C35.15 24.704 35.5306 25.2749 36 25.2749Z" fill="white"/>
<path d="M35.6813 13.7468C35.3625 14.65 35.15 16.35 35.15 18.2093C35.15 20.1218 35.3625 21.7687 35.6813 22.6718C35.7875 21.3437 35.8938 19.8562 35.8938 18.2093C35.8938 16.6156 35.8406 15.075 35.6813 13.7468ZM36.3188 13.7468C36.6375 14.65 36.85 16.35 36.85 18.2093C36.85 20.1218 36.6375 21.7687 36.3188 22.6718C36.2125 21.3437 36.1063 19.8562 36.1063 18.2093C36.1063 16.6156 36.1594 15.075 36.3188 13.7468ZM35.6813 25.275C35.3625 26.1781 35.15 27.8781 35.15 29.7375C35.15 31.65 35.3625 33.2968 35.6813 34.2C35.7875 32.8718 35.8938 31.3843 35.8938 29.7375C35.8938 28.1437 35.8406 26.6031 35.6813 25.275ZM36.3188 25.275C36.6375 26.1781 36.85 27.8781 36.85 29.7375C36.85 31.65 36.6375 33.2968 36.3188 34.2C36.2125 32.8718 36.1063 31.3843 36.1063 29.7375C36.1063 28.1437 36.1594 26.6031 36.3188 25.275Z" fill="white"/>
<path d="M79.482 28.5L75.926 24.146V28.5H73.966V18.728H75.926V23.11L79.482 18.728H81.848L77.816 23.572L81.96 28.5H79.482ZM90.4592 24.454C90.4592 24.734 90.4405 24.986 90.4032 25.21H84.7332C84.7799 25.77 84.9759 26.2087 85.3212 26.526C85.6665 26.8433 86.0912 27.002 86.5952 27.002C87.3232 27.002 87.8412 26.6893 88.1492 26.064H90.2632C90.0392 26.8107 89.6099 27.4267 88.9752 27.912C88.3405 28.388 87.5612 28.626 86.6372 28.626C85.8905 28.626 85.2185 28.4627 84.6212 28.136C84.0332 27.8 83.5712 27.3287 83.2352 26.722C82.9085 26.1153 82.7452 25.4153 82.7452 24.622C82.7452 23.8193 82.9085 23.1147 83.2352 22.508C83.5619 21.9013 84.0192 21.4347 84.6072 21.108C85.1952 20.7813 85.8719 20.618 86.6372 20.618C87.3745 20.618 88.0325 20.7767 88.6112 21.094C89.1992 21.4113 89.6519 21.864 89.9692 22.452C90.2959 23.0307 90.4592 23.698 90.4592 24.454ZM88.4292 23.894C88.4199 23.39 88.2379 22.9887 87.8832 22.69C87.5285 22.382 87.0945 22.228 86.5812 22.228C86.0959 22.228 85.6852 22.3773 85.3492 22.676C85.0225 22.9653 84.8219 23.3713 84.7472 23.894H88.4292ZM96.1878 20.632C97.1118 20.632 97.8585 20.926 98.4278 21.514C98.9972 22.0927 99.2818 22.9047 99.2818 23.95V28.5H97.3218V24.216C97.3218 23.6 97.1678 23.1287 96.8598 22.802C96.5518 22.466 96.1318 22.298 95.5998 22.298C95.0585 22.298 94.6292 22.466 94.3118 22.802C94.0038 23.1287 93.8498 23.6 93.8498 24.216V28.5H91.8898V20.744H93.8498V21.71C94.1112 21.374 94.4425 21.1127 94.8438 20.926C95.2545 20.73 95.7025 20.632 96.1878 20.632ZM108.566 20.744L103.764 32.168H101.678L103.358 28.304L100.25 20.744H102.448L104.45 26.162L106.48 20.744H108.566ZM109.118 24.594C109.118 23.81 109.272 23.1147 109.58 22.508C109.898 21.9013 110.322 21.4347 110.854 21.108C111.396 20.7813 111.998 20.618 112.66 20.618C113.239 20.618 113.743 20.7347 114.172 20.968C114.611 21.2013 114.961 21.4953 115.222 21.85V20.744H117.196V28.5H115.222V27.366C114.97 27.73 114.62 28.0333 114.172 28.276C113.734 28.5093 113.225 28.626 112.646 28.626C111.993 28.626 111.396 28.458 110.854 28.122C110.322 27.786 109.898 27.3147 109.58 26.708C109.272 26.092 109.118 25.3873 109.118 24.594ZM115.222 24.622C115.222 24.146 115.129 23.74 114.942 23.404C114.756 23.0587 114.504 22.7973 114.186 22.62C113.869 22.4333 113.528 22.34 113.164 22.34C112.8 22.34 112.464 22.4287 112.156 22.606C111.848 22.7833 111.596 23.0447 111.4 23.39C111.214 23.726 111.12 24.1273 111.12 24.594C111.12 25.0607 111.214 25.4713 111.4 25.826C111.596 26.1713 111.848 26.4373 112.156 26.624C112.474 26.8107 112.81 26.904 113.164 26.904C113.528 26.904 113.869 26.8153 114.186 26.638C114.504 26.4513 114.756 26.19 114.942 25.854C115.129 25.5087 115.222 25.098 115.222 24.622Z" fill="black"/>
</svg>
