<svg width="178" height="48" viewBox="0 0 178 48" fill="none" xmlns="http://www.w3.org/2000/svg">
<rect x="0.5" y="0.5" width="177" height="47" rx="23.5" fill="white"/>
<rect x="0.5" y="0.5" width="177" height="47" rx="23.5" stroke="#FF9F2F"/>
<path d="M51.3531 28.2499C51.725 26.9218 51.9375 25.4874 51.9375 23.9999C51.9375 22.5124 51.725 21.078 51.3531 19.7499H35.8406L26.8625 10.9312C24.7375 12.4187 22.9844 14.4374 21.7625 16.7749L29.0938 23.9999L21.8156 31.2249C22.9844 33.5624 24.7375 35.5812 26.9156 37.0687L35.8406 28.2499H51.3531Z" fill="#699635"/>
<path d="M20.8594 18.9531C20.3281 20.5469 20.0625 22.2469 20.0625 24C20.0625 25.7531 20.3281 27.4531 20.8594 29.0469L25.9594 24L20.8594 18.9531Z" fill="#3E4347"/>
<path d="M28.7219 38.1843C30.9 39.2999 33.3969 39.9374 36 39.9374C42.5344 39.9374 48.1656 36.0062 50.6094 30.3218H36.7437L28.7219 38.1843Z" fill="#428BC1"/>
<path d="M50.6094 17.6781C48.1656 11.9938 42.5344 8.0625 36 8.0625C33.3969 8.0625 30.9 8.7 28.7219 9.81563L36.7437 17.6781H50.6094Z" fill="#ED4C5C"/>
<path d="M51.1406 19.0594C50.9812 18.5813 50.8219 18.1032 50.6094 17.6782H36.7437L28.7219 9.81567C28.35 9.97505 28.0312 10.1875 27.6594 10.4C27.3937 10.5594 27.1281 10.7719 26.8625 10.9313L35.8406 19.75H51.3531C51.3 19.5375 51.2469 19.2719 51.1406 19.0594Z" fill="white"/>
<path d="M21.8156 16.7749C21.7625 16.8812 21.7094 16.9874 21.6563 17.1468C21.3906 17.7312 21.125 18.3155 20.9125 18.953L26.0125 23.9999L20.9125 29.0468C21.125 29.6843 21.3375 30.2687 21.6563 30.853C21.7094 30.9593 21.7625 31.0655 21.8156 31.2249L29.0938 23.9999L21.8156 16.7749Z" fill="#FFCE31"/>
<path d="M35.8406 28.25L26.8625 37.0687C27.0219 37.175 27.2344 37.3344 27.3937 37.4406C27.8187 37.7062 28.2437 37.9719 28.7219 38.1844L36.7437 30.3219H50.6094C50.8219 29.7906 51.0344 29.2594 51.2469 28.675C51.3 28.5156 51.3 28.4094 51.3531 28.25H35.8406Z" fill="white"/>
<path d="M75.34 28.598C74.6587 28.598 74.0427 28.4813 73.492 28.248C72.9507 28.0147 72.5213 27.6787 72.204 27.24C71.8867 26.8013 71.7233 26.2833 71.714 25.686H73.814C73.842 26.0873 73.982 26.4047 74.234 26.638C74.4953 26.8713 74.85 26.988 75.298 26.988C75.7553 26.988 76.1147 26.8807 76.376 26.666C76.6373 26.442 76.768 26.1527 76.768 25.798C76.768 25.5087 76.6793 25.2707 76.502 25.084C76.3247 24.8973 76.1007 24.7527 75.83 24.65C75.5687 24.538 75.2047 24.4167 74.738 24.286C74.1033 24.0993 73.5853 23.9173 73.184 23.74C72.792 23.5533 72.4513 23.278 72.162 22.914C71.882 22.5407 71.742 22.046 71.742 21.43C71.742 20.8513 71.8867 20.3473 72.176 19.918C72.4653 19.4887 72.8713 19.162 73.394 18.938C73.9167 18.7047 74.514 18.588 75.186 18.588C76.194 18.588 77.0107 18.8353 77.636 19.33C78.2707 19.8153 78.6207 20.4967 78.686 21.374H76.53C76.5113 21.038 76.3667 20.7627 76.096 20.548C75.8347 20.324 75.4847 20.212 75.046 20.212C74.6633 20.212 74.3553 20.31 74.122 20.506C73.898 20.702 73.786 20.9867 73.786 21.36C73.786 21.6213 73.87 21.8407 74.038 22.018C74.2153 22.186 74.43 22.326 74.682 22.438C74.9433 22.5407 75.3073 22.662 75.774 22.802C76.4087 22.9887 76.9267 23.1753 77.328 23.362C77.7293 23.5487 78.0747 23.8287 78.364 24.202C78.6533 24.5753 78.798 25.0653 78.798 25.672C78.798 26.1947 78.6627 26.68 78.392 27.128C78.1213 27.576 77.7247 27.9353 77.202 28.206C76.6793 28.4673 76.0587 28.598 75.34 28.598ZM83.9413 28.626C83.1946 28.626 82.5226 28.4627 81.9253 28.136C81.3279 27.8 80.8566 27.3287 80.5113 26.722C80.1753 26.1153 80.0073 25.4153 80.0073 24.622C80.0073 23.8287 80.1799 23.1287 80.5253 22.522C80.8799 21.9153 81.3606 21.4487 81.9673 21.122C82.5739 20.786 83.2506 20.618 83.9973 20.618C84.7439 20.618 85.4206 20.786 86.0273 21.122C86.6339 21.4487 87.1099 21.9153 87.4553 22.522C87.8099 23.1287 87.9873 23.8287 87.9873 24.622C87.9873 25.4153 87.8053 26.1153 87.4412 26.722C87.0866 27.3287 86.6013 27.8 85.9853 28.136C85.3786 28.4627 84.6973 28.626 83.9413 28.626ZM83.9413 26.918C84.2959 26.918 84.6273 26.834 84.9353 26.666C85.2526 26.4887 85.5046 26.2273 85.6913 25.882C85.8779 25.5367 85.9713 25.1167 85.9713 24.622C85.9713 23.8847 85.7753 23.32 85.3833 22.928C85.0006 22.5267 84.5293 22.326 83.9693 22.326C83.4093 22.326 82.9379 22.5267 82.5553 22.928C82.1819 23.32 81.9953 23.8847 81.9953 24.622C81.9953 25.3593 82.1773 25.9287 82.5413 26.33C82.9146 26.722 83.3813 26.918 83.9413 26.918ZM96.747 20.744V28.5H94.773V27.52C94.521 27.856 94.1897 28.122 93.779 28.318C93.3777 28.5047 92.939 28.598 92.463 28.598C91.8563 28.598 91.3197 28.472 90.853 28.22C90.3863 27.9587 90.0177 27.5807 89.747 27.086C89.4857 26.582 89.355 25.9847 89.355 25.294V20.744H91.315V25.014C91.315 25.63 91.469 26.106 91.777 26.442C92.085 26.7687 92.505 26.932 93.037 26.932C93.5783 26.932 94.003 26.7687 94.311 26.442C94.619 26.106 94.773 25.63 94.773 25.014V20.744H96.747ZM100.963 22.354V26.106C100.963 26.3673 101.024 26.5587 101.145 26.68C101.276 26.792 101.49 26.848 101.789 26.848H102.699V28.5H101.467C99.8148 28.5 98.9888 27.6973 98.9888 26.092V22.354H98.0648V20.744H98.9888V18.826H100.963V20.744H102.699V22.354H100.963ZM108.477 20.632C109.065 20.632 109.587 20.7627 110.045 21.024C110.502 21.276 110.857 21.654 111.109 22.158C111.37 22.6527 111.501 23.25 111.501 23.95V28.5H109.541V24.216C109.541 23.6 109.387 23.1287 109.079 22.802C108.771 22.466 108.351 22.298 107.819 22.298C107.277 22.298 106.848 22.466 106.531 22.802C106.223 23.1287 106.069 23.6 106.069 24.216V28.5H104.109V18.14H106.069V21.71C106.321 21.374 106.657 21.1127 107.077 20.926C107.497 20.73 107.963 20.632 108.477 20.632ZM122.692 26.638H118.8L118.156 28.5H116.098L119.612 18.714H121.894L125.408 28.5H123.336L122.692 26.638ZM122.16 25.07L120.746 20.982L119.332 25.07H122.16ZM130.278 22.354H128.92V28.5H126.932V22.354H126.05V20.744H126.932V20.352C126.932 19.4 127.203 18.7 127.744 18.252C128.285 17.804 129.102 17.594 130.194 17.622V19.274C129.718 19.2647 129.387 19.344 129.2 19.512C129.013 19.68 128.92 19.9833 128.92 20.422V20.744H130.278V22.354ZM133.508 21.948C133.76 21.5373 134.087 21.2153 134.488 20.982C134.899 20.7487 135.365 20.632 135.888 20.632V22.69H135.37C134.754 22.69 134.287 22.8347 133.97 23.124C133.662 23.4133 133.508 23.9173 133.508 24.636V28.5H131.548V20.744H133.508V21.948ZM138.202 19.82C137.857 19.82 137.568 19.7127 137.334 19.498C137.11 19.274 136.998 18.9987 136.998 18.672C136.998 18.3453 137.11 18.0747 137.334 17.86C137.568 17.636 137.857 17.524 138.202 17.524C138.548 17.524 138.832 17.636 139.056 17.86C139.29 18.0747 139.406 18.3453 139.406 18.672C139.406 18.9987 139.29 19.274 139.056 19.498C138.832 19.7127 138.548 19.82 138.202 19.82ZM139.168 20.744V28.5H137.208V20.744H139.168ZM140.601 24.622C140.601 23.8193 140.764 23.1193 141.091 22.522C141.417 21.9153 141.87 21.4487 142.449 21.122C143.027 20.786 143.69 20.618 144.437 20.618C145.398 20.618 146.191 20.8607 146.817 21.346C147.451 21.822 147.876 22.494 148.091 23.362H145.977C145.865 23.026 145.673 22.7647 145.403 22.578C145.141 22.382 144.815 22.284 144.423 22.284C143.863 22.284 143.419 22.4893 143.093 22.9C142.766 23.3013 142.603 23.8753 142.603 24.622C142.603 25.3593 142.766 25.9333 143.093 26.344C143.419 26.7453 143.863 26.946 144.423 26.946C145.216 26.946 145.734 26.5913 145.977 25.882H148.091C147.876 26.722 147.451 27.3893 146.817 27.884C146.182 28.3787 145.389 28.626 144.437 28.626C143.69 28.626 143.027 28.4627 142.449 28.136C141.87 27.8 141.417 27.3333 141.091 26.736C140.764 26.1293 140.601 25.4247 140.601 24.622ZM149.023 24.594C149.023 23.81 149.177 23.1147 149.485 22.508C149.802 21.9013 150.227 21.4347 150.759 21.108C151.3 20.7813 151.902 20.618 152.565 20.618C153.143 20.618 153.647 20.7347 154.077 20.968C154.515 21.2013 154.865 21.4953 155.127 21.85V20.744H157.101V28.5H155.127V27.366C154.875 27.73 154.525 28.0333 154.077 28.276C153.638 28.5093 153.129 28.626 152.551 28.626C151.897 28.626 151.3 28.458 150.759 28.122C150.227 27.786 149.802 27.3147 149.485 26.708C149.177 26.092 149.023 25.3873 149.023 24.594ZM155.127 24.622C155.127 24.146 155.033 23.74 154.847 23.404C154.66 23.0587 154.408 22.7973 154.091 22.62C153.773 22.4333 153.433 22.34 153.069 22.34C152.705 22.34 152.369 22.4287 152.061 22.606C151.753 22.7833 151.501 23.0447 151.305 23.39C151.118 23.726 151.025 24.1273 151.025 24.594C151.025 25.0607 151.118 25.4713 151.305 25.826C151.501 26.1713 151.753 26.4373 152.061 26.624C152.378 26.8107 152.714 26.904 153.069 26.904C153.433 26.904 153.773 26.8153 154.091 26.638C154.408 26.4513 154.66 26.19 154.847 25.854C155.033 25.5087 155.127 25.098 155.127 24.622Z" fill="black"/>
</svg>
